# xmcd CD database file
# Copyright (C) 1993-1998 Ti Kan
# 
# Track frame offsets:
#     150
#     14135
#     27750
#     37947
#     51625
#     61450
#     72145
#     83545
#     97602
#     112475
#     124775
#     138425
#     153657
#     169400
#     183085
#     198752
#     212332
#     228745
#     243312
#     258202
# 
# Disc length: 3618 seconds
# 
# Revision: 1
# Processed by: cddbd v1.4b41PL1 Copyright (c) Steve Scherf et al.
# Submitted via: DiscPlay 4.0.4
# 
DISCID=130e2014
DTITLE=Dottie West - Are You Happy Baby - The Dottie West Collection 76-84
DYEAR=1900
DGENRE=
TTITLE0=When It's Just You And Me
TTITLE1=Every Word I Write
TTITLE2=Tonight You Belong To Me
TTITLE3=Every Time Two Fools Collide
TTITLE4=Come See Me And Come Lonely
TTITLE5=Anyone Who Isn't Me Tonight
TTITLE6=Reaching Out To Hold You
TTITLE7=All I Ever Need Is You
TTITLE8=Til I Make It On My Own
TTITLE9=You Pick Me Up (And Put Me Down)
TTITLE10=A Lesson In Leavin'
TTITLE11=Levin's For Unbelievers
TTITLE12=Are You Happy Baby?
TTITLE13=What Are We Doin' In Love
TTITLE14=(I'm Gonna) Put You Back On The Rack
TTITLE15=It's High Time
TTITLE16=You're Not Easy To Forget
TTITLE17=She Can't Get My Love Off The Bed
TTITLE18=Tulsa Ballroom
TTITLE19=Together Again
EXTD=
EXTT0=
EXTT1=
EXTT2=
EXTT3=
EXTT4=
EXTT5=
EXTT6=
EXTT7=
EXTT8=
EXTT9=
EXTT10=
EXTT11=
EXTT12=
EXTT13=
EXTT14=
EXTT15=
EXTT16=
EXTT17=
EXTT18=
EXTT19=
PLAYORDER=
